<svg viewBox="0 0 24 24" fill="none" xmlns="http://www.w3.org/2000/svg">
<path fill-rule="evenodd" clip-rule="evenodd" d="M4 0C1.79086 0 0 1.79086 0 4V20C0 22.2091 1.79086 24 4 24H20C22.2091 24 24 22.2091 24 20V4C24 1.79086 22.2091 0 20 0H4ZM11.2784 7.05441C11.8024 6.53452 12.6486 6.53785 13.1685 7.06183C13.6884 7.58582 13.6851 8.43205 13.1611 8.95194L6.27786 15.7813C5.75387 16.3012 4.90764 16.2978 4.38775 15.7738C3.86786 15.2499 3.87119 14.4036 4.39518 13.8837L11.2784 7.05441ZM10.723 12.2295L13.396 9.58263V12.2295H10.723ZM10.7099 12.2295V14.8239C10.7099 15.562 11.3083 16.1604 12.0464 16.1604C12.7845 16.1604 13.3829 15.562 13.3829 14.8239V12.2295H10.7099ZM20 9.58263L17.327 12.2295H20V9.58263ZM17.3139 14.8239V12.2295H19.9869V14.8239C19.9869 15.562 19.3885 16.1604 18.6504 16.1604C17.9123 16.1604 17.3139 15.562 17.3139 14.8239ZM19.5934 7.30804C19.0735 6.78405 18.2273 6.78073 17.7033 7.30061L14.0243 10.9508L14.0512 10.978V14.6929L15.9118 12.8453L15.9109 12.8444L19.5859 9.19815C20.1099 8.67826 20.1133 7.83203 19.5934 7.30804Z" fill="url(#paint0_linear_13_151)"/>
<defs>
<linearGradient id="paint0_linear_13_151" x1="0" y1="0" x2="24" y2="24" gradientUnits="userSpaceOnUse">
<stop stop-color="#F0BF62"/>
<stop offset="1" stop-color="#DE9A31"/>
</linearGradient>
</defs>
</svg>