<svg viewBox="0 0 24 24" fill="none" xmlns="http://www.w3.org/2000/svg">
<rect width="24" height="24" rx="4" fill="#2F1C42"/>
<path d="M13.1685 7.39518C12.6486 6.87119 11.8024 6.86786 11.2784 7.38775L4.39518 14.2171C3.87119 14.737 3.86786 15.5832 4.38775 16.1072C4.90764 16.6312 5.75387 16.6345 6.27786 16.1146L13.1611 9.28529C13.6851 8.7654 13.6884 7.91917 13.1685 7.39518Z" fill="url(#paint0_linear_62_50)"/>
<path d="M13.396 9.91599L10.723 12.5628L10.7099 12.5628L10.7099 15.1572C10.7099 15.8954 11.3083 16.4938 12.0464 16.4938C12.7845 16.4938 13.3829 15.8954 13.3829 15.1572L13.3829 12.5628L13.396 12.5628L13.396 9.91599Z" fill="url(#paint1_linear_62_50)"/>
<path d="M17.327 12.5628L20 9.91599L20 12.5628L19.9869 12.5628L19.9869 15.1572C19.9869 15.8954 19.3885 16.4938 18.6504 16.4938C17.9122 16.4938 17.3139 15.8954 17.3139 15.1572L17.3139 12.5628L17.327 12.5628Z" fill="url(#paint2_linear_62_50)"/>
<path d="M17.7033 7.63398C18.2273 7.11409 19.0735 7.11742 19.5934 7.64141C20.1133 8.1654 20.11 9.01163 19.586 9.53151L15.911 13.1778L15.9119 13.1787L14.0512 15.0262L14.0512 11.3113L14.0243 11.2842L17.7033 7.63398Z" fill="url(#paint3_linear_62_50)"/>
<defs>
<linearGradient id="paint0_linear_62_50" x1="4" y1="7" x2="19.9406" y2="16.5867" gradientUnits="userSpaceOnUse">
<stop stop-color="#F8F88F"/>
<stop offset="1" stop-color="#DB07D7"/>
</linearGradient>
<linearGradient id="paint1_linear_62_50" x1="4" y1="7" x2="19.9406" y2="16.5867" gradientUnits="userSpaceOnUse">
<stop stop-color="#F8F88F"/>
<stop offset="1" stop-color="#DB07D7"/>
</linearGradient>
<linearGradient id="paint2_linear_62_50" x1="4" y1="7" x2="19.9406" y2="16.5867" gradientUnits="userSpaceOnUse">
<stop stop-color="#F8F88F"/>
<stop offset="1" stop-color="#DB07D7"/>
</linearGradient>
<linearGradient id="paint3_linear_62_50" x1="4" y1="7" x2="19.9406" y2="16.5867" gradientUnits="userSpaceOnUse">
<stop stop-color="#F8F88F"/>
<stop offset="1" stop-color="#DB07D7"/>
</linearGradient>
</defs>
</svg>
