<svg viewBox="0 0 115 24" fill="none" xmlns="http://www.w3.org/2000/svg">
<path d="M22.98 0.990479C21.677 -0.322854 19.556 -0.33119 18.2426 0.971862L0.990478 18.089C-0.322855 19.392 -0.331189 21.513 0.971863 22.8264C2.27492 24.1397 4.39591 24.148 5.70925 22.845L22.9614 5.72787C24.2748 4.42481 24.2831 2.30381 22.98 0.990479Z" fill="url(#paint0_linear_30_85)"/>
<path d="M23.5503 7.30866L16.8506 13.9427H16.8177V20.4454C16.8177 22.2955 18.3175 23.7952 20.1676 23.7952C22.0177 23.7952 23.5175 22.2955 23.5175 20.4454V13.9427H23.5503V7.30866Z" fill="url(#paint1_linear_30_85)"/>
<path d="M33.4028 13.9427L40.1026 7.30866V13.9427H40.0697V20.4454C40.0697 22.2955 38.5699 23.7952 36.7199 23.7952C34.8698 23.7952 33.37 22.2955 33.37 20.4454V13.9427H33.4028Z" fill="url(#paint2_linear_30_85)"/>
<path d="M34.3462 1.58901C35.6595 0.285958 37.7805 0.294293 39.0835 1.60763C40.3866 2.92096 40.3783 5.04196 39.0649 6.34501L29.8538 15.484L29.8561 15.4863L25.1925 20.117V10.8059L25.125 10.7379L34.3462 1.58901Z" fill="url(#paint3_linear_30_85)"/>
<path d="M49.0002 23.2399C47.3362 23.2399 46.0962 22.6799 45.2802 21.5599C44.4642 20.4239 44.0562 18.8639 44.0562 16.8799V16.5199C44.0562 14.3439 44.4962 12.7279 45.3762 11.6719C46.2562 10.6159 47.4642 10.0879 49.0002 10.0879C49.8962 10.0879 50.6962 10.3039 51.4002 10.7359C52.1042 11.1519 52.6082 11.7279 52.9122 12.4639H53.0802L53.2002 10.3279H55.6482V22.9999H53.0802V20.8879H52.9122C52.6082 21.6079 52.1042 22.1839 51.4002 22.6159C50.6962 23.0319 49.8962 23.2399 49.0002 23.2399ZM49.9602 21.1279C50.9042 21.1279 51.6562 20.8239 52.2162 20.2159C52.7762 19.5919 53.0562 18.7679 53.0562 17.7439V15.6079C53.0562 14.5679 52.7762 13.7439 52.2162 13.1359C51.6562 12.5119 50.9042 12.1999 49.9602 12.1999C48.9842 12.1999 48.2162 12.4879 47.6562 13.0639C47.0962 13.6399 46.8162 14.4479 46.8162 15.4879V17.8639C46.8162 18.8879 47.0962 19.6879 47.6562 20.2639C48.2162 20.8399 48.9842 21.1279 49.9602 21.1279Z" fill="#23262D"/>
<path d="M63.5822 23.2399C62.1742 23.2399 61.1102 22.7919 60.3902 21.8959C59.6862 20.9839 59.3342 19.7599 59.3342 18.2239V10.3279H61.9262V17.8639C61.9262 19.0799 62.1822 19.9279 62.6942 20.4079C63.2062 20.8879 63.8862 21.1279 64.7342 21.1279C65.7262 21.1279 66.4942 20.7919 67.0382 20.1199C67.5982 19.4479 67.8782 18.5599 67.8782 17.4559V10.3279H70.4702V22.9999H68.0702L67.8782 20.6239H67.6862C67.3982 21.4239 66.8862 22.0639 66.1502 22.5439C65.4302 23.0079 64.5742 23.2399 63.5822 23.2399Z" fill="#23262D"/>
<path d="M74.4788 22.9999V10.3279H77.0468V22.9999H74.4788ZM74.4788 8.35991V5.50391H77.0468V8.35991H74.4788Z" fill="#23262D"/>
<path d="M88.7168 23.2399C87.1328 23.2399 85.8048 22.9599 84.7328 22.3999C83.6608 21.8239 82.8448 21.0239 82.2848 19.9999C81.7408 18.9599 81.4688 17.7519 81.4688 16.3759V5.50391H84.1808V16.2079C84.1808 17.6159 84.5888 18.7359 85.4048 19.5679C86.2208 20.3999 87.3328 20.8159 88.7408 20.8159C90.1168 20.8159 91.2128 20.4159 92.0288 19.6159C92.8608 18.7999 93.2768 17.6639 93.2768 16.2079V5.50391H95.9888V16.3759C95.9888 17.7999 95.6848 19.0239 95.0768 20.0479C94.4848 21.0719 93.6448 21.8639 92.5568 22.4239C91.4688 22.9679 90.1888 23.2399 88.7168 23.2399Z" fill="#23262D"/>
<path d="M98.4261 22.9999L104.786 13.9039L98.8821 5.50391H102.218L106.634 12.0559H106.778L111.17 5.50391H114.434L108.626 13.8559L114.866 22.9999H111.53L106.682 15.8479H106.586L101.642 22.9999H98.4261Z" fill="#23262D"/>
<defs>
<linearGradient id="paint0_linear_30_85" x1="0" y1="0" x2="39.9536" y2="24.0282" gradientUnits="userSpaceOnUse">
<stop stop-color="#FBD57F"/>
<stop offset="1" stop-color="#D17F0D"/>
</linearGradient>
<linearGradient id="paint1_linear_30_85" x1="0" y1="0" x2="39.9536" y2="24.0282" gradientUnits="userSpaceOnUse">
<stop stop-color="#FBD57F"/>
<stop offset="1" stop-color="#D17F0D"/>
</linearGradient>
<linearGradient id="paint2_linear_30_85" x1="0" y1="0" x2="39.9536" y2="24.0282" gradientUnits="userSpaceOnUse">
<stop stop-color="#FBD57F"/>
<stop offset="1" stop-color="#D17F0D"/>
</linearGradient>
<linearGradient id="paint3_linear_30_85" x1="0" y1="0" x2="39.9536" y2="24.0282" gradientUnits="userSpaceOnUse">
<stop stop-color="#FBD57F"/>
<stop offset="1" stop-color="#D17F0D"/>
</linearGradient>
</defs>
</svg>
