<svg viewBox="0 0 115 24" fill="none" xmlns="http://www.w3.org/2000/svg">
<path d="M22.9808 0.990513C21.6777 -0.322865 19.5566 -0.331202 18.2433 0.971895L0.990512 18.0896C-0.322866 19.3927 -0.3312 21.5138 0.971896 22.8271C2.27499 24.1405 4.39606 24.1489 5.70944 22.8458L22.9622 5.72806C24.2756 4.42496 24.2839 2.30389 22.9808 0.990513Z" fill="url(#paint0_linear_53_43)"/>
<path d="M23.5511 7.30891L16.8512 13.9432L16.8183 13.9432L16.8183 20.4461C16.8183 22.2962 18.3181 23.7961 20.1683 23.7961C22.0184 23.7961 23.5183 22.2962 23.5183 20.4461L23.5183 13.9432L23.5511 13.9432L23.5511 7.30891Z" fill="url(#paint1_linear_53_43)"/>
<path d="M33.404 13.9432L40.1039 7.30891L40.1039 13.9432L40.0711 13.9432L40.0711 20.4461C40.0711 22.2962 38.5713 23.7961 36.7211 23.7961C34.871 23.7961 33.3711 22.2962 33.3711 20.4461L33.3711 13.9432L33.404 13.9432Z" fill="url(#paint2_linear_53_43)"/>
<path d="M34.3473 1.58906C35.6607 0.285967 37.7818 0.294303 39.0849 1.60768C40.388 2.92106 40.3796 5.04213 39.0663 6.34523L29.8548 15.4846L29.8571 15.4868L25.1934 20.1177L25.1934 10.8063L25.1259 10.7383L34.3473 1.58906Z" fill="url(#paint3_linear_53_43)"/>
<path d="M49.0018 23.2408C47.3377 23.2408 46.0977 22.6807 45.2817 21.5607C44.4656 20.4247 44.0576 18.8646 44.0576 16.8805L44.0576 16.5205C44.0576 14.3445 44.4976 12.7284 45.3777 11.6724C46.2577 10.6163 47.4657 10.0883 49.0018 10.0883C49.8978 10.0883 50.6978 10.3043 51.4019 10.7363C52.1059 11.1523 52.6099 11.7284 52.9139 12.4644L53.0819 12.4644L53.2019 10.3283L55.65 10.3283L55.65 23.0007L53.0819 23.0007L53.0819 20.8887L52.9139 20.8887C52.6099 21.6087 52.1059 22.1847 51.4019 22.6167C50.6978 23.0327 49.8978 23.2408 49.0018 23.2408ZM49.9618 21.1287C50.9059 21.1287 51.6579 20.8247 52.2179 20.2167C52.7779 19.5926 53.0579 18.7686 53.0579 17.7446L53.0579 15.6085C53.0579 14.5685 52.7779 13.7444 52.2179 13.1364C51.6579 12.5124 50.9059 12.2004 49.9618 12.2004C48.9858 12.2004 48.2178 12.4884 47.6577 13.0644C47.0977 13.6404 46.8177 14.4485 46.8177 15.4885L46.8177 17.8646C46.8177 18.8886 47.0977 19.6886 47.6577 20.2647C48.2178 20.8407 48.9858 21.1287 49.9618 21.1287Z" fill="url(#paint4_linear_53_43)"/>
<path d="M63.5843 23.2408C62.1763 23.2408 61.1123 22.7927 60.3922 21.8967C59.6882 20.9847 59.3362 19.7606 59.3362 18.2246L59.3362 10.3283L61.9283 10.3283L61.9283 17.8646C61.9283 19.0806 62.1843 19.9286 62.6963 20.4087C63.2083 20.8887 63.8884 21.1287 64.7364 21.1287C65.7284 21.1287 66.4964 20.7927 67.0405 20.1206C67.6005 19.4486 67.8805 18.5606 67.8805 17.4566L67.8805 10.3283L70.4726 10.3283L70.4726 23.0007L68.0725 23.0007L67.8805 20.6247L67.6885 20.6247C67.4005 21.4247 66.8885 22.0647 66.1524 22.5447C65.4324 23.0087 64.5764 23.2408 63.5843 23.2408Z" fill="url(#paint5_linear_53_43)"/>
<path d="M74.4813 23.0007L74.4813 10.3283L77.0494 10.3283L77.0494 23.0007L74.4813 23.0007ZM74.4813 8.36025L74.4813 5.50415L77.0494 5.50415L77.0494 8.36025L74.4813 8.36025Z" fill="url(#paint6_linear_53_43)"/>
<path d="M88.7198 23.2408C87.1357 23.2408 85.8077 22.9607 84.7356 22.4007C83.6636 21.8247 82.8476 21.0247 82.2875 20.0006C81.7435 18.9606 81.4715 17.7526 81.4715 16.3765L81.4715 5.50415L84.1836 5.50415L84.1836 16.2085C84.1836 17.6166 84.5916 18.7366 85.4077 19.5686C86.2237 20.4007 87.3357 20.8167 88.7438 20.8167C90.1198 20.8167 91.2159 20.4167 92.0319 19.6166C92.8639 18.8006 93.2799 17.6646 93.2799 16.2085L93.2799 5.50415L95.992 5.50415L95.992 16.3765C95.992 17.8006 95.688 19.0246 95.08 20.0486C94.488 21.0727 93.6479 21.8647 92.5599 22.4247C91.4719 22.9687 90.1918 23.2408 88.7198 23.2408Z" fill="url(#paint7_linear_53_43)"/>
<path d="M98.4294 23.0007L104.79 13.9044L98.8854 5.50415L102.222 5.50415L106.638 12.0564L106.782 12.0564L111.174 5.50415L114.438 5.50415L108.63 13.8564L114.87 23.0007L111.534 23.0007L106.686 15.8485L106.59 15.8485L101.646 23.0007L98.4294 23.0007Z" fill="url(#paint8_linear_53_43)"/>
<defs>
<linearGradient id="paint0_linear_53_43" x1="0" y1="0" x2="39.9549" y2="24.029" gradientUnits="userSpaceOnUse">
<stop stop-color="#F2F21E"/>
<stop offset="1" stop-color="#E826E4"/>
</linearGradient>
<linearGradient id="paint1_linear_53_43" x1="0" y1="0" x2="39.9549" y2="24.029" gradientUnits="userSpaceOnUse">
<stop stop-color="#F2F21E"/>
<stop offset="1" stop-color="#E826E4"/>
</linearGradient>
<linearGradient id="paint2_linear_53_43" x1="0" y1="0" x2="39.9549" y2="24.029" gradientUnits="userSpaceOnUse">
<stop stop-color="#F2F21E"/>
<stop offset="1" stop-color="#E826E4"/>
</linearGradient>
<linearGradient id="paint3_linear_53_43" x1="0" y1="0" x2="39.9549" y2="24.029" gradientUnits="userSpaceOnUse">
<stop stop-color="#F2F21E"/>
<stop offset="1" stop-color="#E826E4"/>
</linearGradient>
<linearGradient id="paint4_linear_53_43" x1="43.9377" y1="5.4564" x2="114.87" y2="23.2613" gradientUnits="userSpaceOnUse">
<stop stop-color="#E826E4"/>
<stop offset="1" stop-color="#3F18EC"/>
</linearGradient>
<linearGradient id="paint5_linear_53_43" x1="43.9377" y1="5.4564" x2="114.87" y2="23.2613" gradientUnits="userSpaceOnUse">
<stop stop-color="#E826E4"/>
<stop offset="1" stop-color="#3F18EC"/>
</linearGradient>
<linearGradient id="paint6_linear_53_43" x1="43.9377" y1="5.4564" x2="114.87" y2="23.2613" gradientUnits="userSpaceOnUse">
<stop stop-color="#E826E4"/>
<stop offset="1" stop-color="#3F18EC"/>
</linearGradient>
<linearGradient id="paint7_linear_53_43" x1="43.9377" y1="5.4564" x2="114.87" y2="23.2613" gradientUnits="userSpaceOnUse">
<stop stop-color="#E826E4"/>
<stop offset="1" stop-color="#3F18EC"/>
</linearGradient>
<linearGradient id="paint8_linear_53_43" x1="43.9377" y1="5.4564" x2="114.87" y2="23.2613" gradientUnits="userSpaceOnUse">
<stop stop-color="#E826E4"/>
<stop offset="1" stop-color="#3F18EC"/>
</linearGradient>
</defs>
</svg>
