<svg width="161" height="40" viewBox="0 0 161 40" fill="none" xmlns="http://www.w3.org/2000/svg">
<path d="M137.296 30.1256L146.633 19.1698L137.903 9.05239H142.528L149.119 16.9729H149.293L155.883 9.05239H160.393L151.808 19.112L161 30.1256H156.375L149.235 21.4824H149.09L141.719 30.1256H137.296Z" fill="#23262D"/>
<path d="M124.358 30.4147C122.084 30.4147 120.167 30.0581 118.606 29.3451C117.064 28.6321 115.888 27.6396 115.079 26.3677C114.289 25.0765 113.894 23.583 113.894 21.8871V9.05239H117.507V21.598C117.507 23.5252 118.133 24.9705 119.386 25.9341C120.658 26.8976 122.344 27.3794 124.445 27.3794C126.68 27.3794 128.376 26.8687 129.532 25.8474C130.708 24.826 131.296 23.4095 131.296 21.598V9.05239H134.967V21.8871C134.967 23.6215 134.533 25.1247 133.666 26.3966C132.799 27.6685 131.575 28.661 129.995 29.374C128.415 30.0678 126.536 30.4147 124.358 30.4147Z" fill="#23262D"/>
<path d="M106.099 30.1256V14.8627H109.51V30.1256H106.099ZM106.099 12.4923V9.05239H109.539V12.4923H106.099Z" fill="#23262D"/>
<path d="M91.98 30.4147C89.9951 30.4147 88.4823 29.8462 87.4416 28.7092C86.4202 27.5721 85.9096 26.0497 85.9096 24.1418V14.8627H89.3495V23.7371C89.3495 25.2596 89.7253 26.3291 90.4769 26.9458C91.2477 27.5432 92.2595 27.8419 93.5121 27.8419C94.996 27.8419 96.1523 27.418 96.9809 26.57C97.8289 25.7221 98.2528 24.5947 98.2528 23.1879V14.8627H101.664V30.1256H98.4841L98.195 27.1482H97.9349C97.5109 28.1503 96.769 28.95 95.709 29.5475C94.6491 30.1256 93.4061 30.4147 91.98 30.4147Z" fill="#23262D"/>
<path d="M72.3075 30.4147C70.8236 30.4147 69.5517 30.1063 68.4917 29.4896C67.4318 28.8537 66.6224 27.9768 66.0635 26.8591C65.524 25.7221 65.2542 24.402 65.2542 22.8988V22.0894C65.2542 20.5285 65.5432 19.1891 66.1214 18.0714C66.7188 16.9536 67.5474 16.0961 68.6074 15.4986C69.6866 14.882 70.9585 14.5736 72.4231 14.5736C73.7721 14.5736 74.938 14.8338 75.9208 15.3541C76.9037 15.8552 77.6071 16.5393 78.031 17.4065H78.2912L78.3779 14.8627H81.7022V30.1256H78.2623L78.2912 27.5529H78.031C77.5878 28.4393 76.8651 29.1428 75.863 29.6631C74.8609 30.1641 73.6757 30.4147 72.3075 30.4147ZM73.377 27.813C74.9187 27.813 76.1039 27.418 76.9326 26.6278C77.7805 25.8184 78.2045 24.7585 78.2045 23.4481V21.5402C78.2045 20.2298 77.7805 19.1795 76.9326 18.3893C76.1039 17.5992 74.9187 17.2042 73.377 17.2042C72.028 17.2042 70.9392 17.5703 70.1105 18.3026C69.2819 19.0349 68.8675 20.1141 68.8675 21.5402V23.4481C68.8675 24.8742 69.2819 25.963 70.1105 26.7146C70.9392 27.4469 72.028 27.813 73.377 27.813Z" fill="#23262D"/>
<path d="M35.8158 30.1256V9.05239H41.6839L48.5927 25.8184H48.7083L55.7905 9.05239H61.5141V30.1256H58.0163V12.8103L57.9874 12.1165H57.7851L57.496 12.8103L50.3849 30.1256H46.9739L39.8338 12.7814L39.5448 12.1743H39.3135V30.1256H35.8158Z" fill="#23262D"/>
<rect y="6" width="26.0163" height="26.0163" rx="4" fill="url(#paint0_linear_2_23)"/>
<path fill-rule="evenodd" clip-rule="evenodd" d="M14.2748 13.6551C13.7112 13.0871 12.7939 13.0835 12.2259 13.6471L4.76442 21.0502C4.19641 21.6137 4.19281 22.531 4.75637 23.0991C5.31994 23.6671 6.23726 23.6707 6.80527 23.1071L14.2668 15.704C14.8348 15.1405 14.8384 14.2231 14.2748 13.6551ZM14.5214 16.3877L11.6238 19.2569H11.6096V22.0693C11.6096 22.8694 12.2583 23.5181 13.0585 23.5181C13.8586 23.5181 14.5073 22.8694 14.5073 22.0693V19.2569L14.5214 19.2569V16.3877ZM18.7827 19.2569L21.6803 16.3877V19.2569L21.6661 19.2569V22.0693C21.6661 22.8694 21.0174 23.5181 20.2173 23.5181C19.4171 23.5181 18.7684 22.8694 18.7684 22.0693V19.2569H18.7827ZM19.1906 13.914C19.7586 13.3504 20.6759 13.354 21.2395 13.922C21.803 14.49 21.7994 15.4074 21.2314 15.9709L17.2476 19.9235L17.2486 19.9245L15.2317 21.9273V17.9003L15.2025 17.8708L19.1906 13.914Z" fill="#F8F4FE"/>
<defs>
<linearGradient id="paint0_linear_2_23" x1="0" y1="6" x2="26.0163" y2="32.0163" gradientUnits="userSpaceOnUse">
<stop stop-color="#F0BF62"/>
<stop offset="1" stop-color="#DE9A31"/>
</linearGradient>
</defs>
</svg>
